#N canvas 0 54 1533 1114 10;
#X obj 148 833 *~;
#X obj 327 833 *~;
#X obj 533 723 * 220.5;
#X obj 532 775 +~;
#X obj 532 797 expr~ 220.5-$v1;
#X obj 533 745 sig~;
#X obj 610 759 *;
#X obj 610 719 - 100;
#X obj 610 700 random 200;
#X obj 149 811 *~;
#X obj 326 811 *~;
#X obj 610 680 r \$0-grainbang;
#X obj 339 355 r \$0-grainbang;
#X obj 26 770 *~ 441;
#X obj 391 1006 r \$2-volume;
#X obj 325 1041 throw~ \$2-grainoutR;
#X obj 146 1041 throw~ \$2-grainoutL;
#X obj 531 816 tabread~ \$2-hann;
#X obj 429 817 tabread~ \$2-hann;
#X obj 625 740 r random_panning_int;
#X msg 533 701 0.5;
#X obj 533 682 loadbang;
#X obj 211 697 r filter_freq;
#X obj 149 713 lop~;
#X obj 149 733 lop~;
#X text 533 657 panning + rnd panning logic;
#X obj 146 1022 *~ 1;
#X obj 326 1022 *~ 1;
#N canvas 0 77 1399 463 delay 0;
#X obj 29 281 +~;
#X obj 28 260 inlet~ audio_in_L;
#X obj 193 363 +~;
#X obj 502 370 outlet~ audio_out_R;
#X obj 192 342 inlet~ audio_in_R;
#X obj 346 287 outlet~ audio_out_L;
#X obj 520 346 *~;
#X obj 365 265 *~;
#X obj 346 241 vd~ \$0-echo-L;
#X obj 29 301 delwrite~ \$0-echo-L 5000;
#X obj 193 383 delwrite~ \$0-echo-R 5000;
#X obj 502 319 vd~ \$0-echo-R;
#X obj 892 228 pack f 50;
#X obj 892 248 line~;
#X obj 398 129 r delay_time;
#X obj 892 123 random 1000;
#X obj 1028 107 r \$0-grainbang;
#X obj 892 146 / 1000;
#X obj 892 166 *;
#X obj 892 185 +;
#X obj 1028 150 -;
#X obj 1126 114 loadbang;
#X obj 1193 127 r delay_dry_wet;
#X obj 1193 147 clip 0.5 1;
#X obj 1193 169 cyclone/scale 0.5 1 0.5 0.75;
#X obj 892 206 clip 0 0.95;
#X msg 1126 134 0.95, f 5;
#X obj 797 228 pack f 50;
#X obj 797 248 line~;
#X obj 797 146 / 1000;
#X obj 797 166 *;
#X obj 797 185 +;
#X obj 797 206 clip 0 0.95;
#X obj 797 123 random 1000;
#X obj 501 169 clip 20 1000, f 8;
#X obj 516 67 random 1000;
#X obj 516 127 *;
#X obj 501 147 +;
#X obj 531 109 r delay_glitch;
#X text 604 64 random delay time/glitch logic;
#X obj 501 49 r \$0-grainbang;
#X obj 516 88 cyclone/scale 0 1000 -200 200;
#X obj 501 203 sig~;
#X obj 501 224 lop~ 2;
#X connect 0 0 9 0;
#X connect 1 0 0 0;
#X connect 2 0 10 0;
#X connect 4 0 2 0;
#X connect 6 0 2 1;
#X connect 7 0 0 1;
#X connect 8 0 5 0;
#X connect 8 0 7 0;
#X connect 11 0 3 0;
#X connect 11 0 6 0;
#X connect 12 0 13 0;
#X connect 13 0 6 1;
#X connect 14 0 37 0;
#X connect 15 0 17 0;
#X connect 16 0 15 0;
#X connect 16 0 20 0;
#X connect 16 0 33 0;
#X connect 17 0 18 0;
#X connect 18 0 19 0;
#X connect 19 0 25 0;
#X connect 20 0 18 1;
#X connect 20 0 30 1;
#X connect 21 0 26 0;
#X connect 22 0 23 0;
#X connect 23 0 24 0;
#X connect 24 0 19 1;
#X connect 24 0 20 1;
#X connect 24 0 31 1;
#X connect 25 0 12 0;
#X connect 26 0 20 0;
#X connect 27 0 28 0;
#X connect 28 0 7 1;
#X connect 29 0 30 0;
#X connect 30 0 31 0;
#X connect 31 0 32 0;
#X connect 32 0 27 0;
#X connect 33 0 29 0;
#X connect 34 0 42 0;
#X connect 35 0 41 0;
#X connect 36 0 37 1;
#X connect 37 0 34 0;
#X connect 38 0 36 1;
#X connect 40 0 35 0;
#X connect 40 0 37 0;
#X connect 41 0 36 0;
#X connect 42 0 43 0;
#X connect 43 0 8 0;
#X connect 43 0 11 0;
#X restore 197 934 pd delay;
#X f 12;
#X obj 377 977 *~;
#X obj 326 977 *~;
#X obj 147 977 *~;
#X obj 198 977 *~;
#X obj 431 863 r delay_dry_wet;
#X obj 431 883 clip 0 1;
#X obj 147 1000 +~, f 9;
#X obj 326 1000 +~, f 9;
#X obj 431 902 t f f;
#X obj 597 918 expr sin($f1 * 1.570796);
#X obj 431 918 expr cos($f1 * 1.570796);
#X obj 597 940 pack f 20;
#X obj 597 961 line~;
#X obj 431 940 pack f 20;
#X obj 431 961 line~;
#X obj 324 468 +~;
#X obj 25 128 s \$0-grainbang;
#X obj 25 108 bng 15 250 50 0 empty empty empty 17 7 0 10 #fcfcfc #000000 #000000;
#X obj 25 181 r \$0-grainbang;
#X obj 25 317 line~;
#X obj 25 272 f;
#X obj 40 246 / 44.1;
#X obj 25 200 bng 15 250 50 0 empty empty empty 17 7 0 10 #fcfcfc #000000 #000000;
#X obj 25 67 inlet;
#X obj 25 88 t b;
#X obj 40 223 r \$2-grainsize;
#X text 23 158 grainbang input;
#X obj 339 379 random 10000;
#X obj 339 402 *;
#X obj 423 386 r offset_random;
#X obj 355 106 r \$0-grainbang;
#X obj 355 184 sel 0 1, f 13;
#X obj 355 154 < 100;
#X obj 436 136 r reverse_chance;
#X obj 355 131 random 100;
#X msg 25 294 0 \, 1 \$1;
#X msg 392 208 -1;
#X obj 355 232 *;
#X obj 355 272 expr 1 - $f1;
#X obj 340 304 *;
#X obj 557 249 r \$2-grainsize;
#X obj 557 272 / 44.1;
#X obj 524 288 f;
#X obj 455 272 r \$0-grainbang;
#X obj 325 332 *~;
#X msg 355 207 1;
#X obj 790 131 r grain_pitch_global;
#X msg 870 172 1;
#X msg 790 172 0.25;
#X msg 830 172 0.5;
#X msg 910 172 2;
#X msg 950 172 4;
#X obj 790 152 sel 0 1 2 3 4, f 34;
#X obj 339 445 sig~;
#X obj 660 369 - 1;
#X obj 660 391 max 0;
#X obj 524 407 *;
#X obj 339 423 +;
#X obj 325 512 delread4~ \$2-polydelaygrain-R 20000;
#X obj 150 484 delread4~ \$2-polydelaygrain-L 20000;
#X obj 660 50 random 1000;
#X obj 660 74 cyclone/scale 0 1000 -1 1;
#X obj 660 117 *;
#X obj 660 216 +;
#X obj 675 96 r random_pitch;
#X obj 660 29 r \$0-grainbang;
#X text 513 893 delay dry/wet crossover;
#X text 924 130 pitch logic;
#X text 740 49 random pitch logic;
#X text 354 83 reverse grainbang logic;
#X text 566 778 reading position from hann curve;
#X text 25 819 generating grains by reading the crown array which is essentially the grain adsr, f 17;
#X text 144 1063 sends each grain instance audio into the mixer;
#X text 189 361 random offset logic able to "look back" 10sec, f 21;
#X text 23 42 master grainbang input;
#X obj 325 562 *~;
#X obj 149 561 *~;
#X obj 557 546 clip~ 0 1;
#X obj 557 525 line~;
#X obj 557 501 cyclone/scale 100 1010 1 0.4 0.5;
#X obj 149 753 lop~;
#X obj 149 774 lop~;
#X obj 325 713 lop~;
#X obj 325 733 lop~;
#X obj 325 753 lop~;
#X obj 325 774 lop~;
#X text 200 766 lowpass filter(s);
#X obj 173 606 r filter_freq;
#X obj 149 680 *~;
#X obj 325 680 *~;
#X floatatom 173 625 5 0 0 0 - - - 0;
#X obj 173 664 cyclone/scale 5 25 0 1 1;
#X obj 173 644 clip 5 25;
#X text 173 586 zipper click prevention;
#X text 94 438 reading the audio from buffers \, determined by size \, pitch \, offset \, reverse, f 34;
#X obj 26 796 tabread4~ 2-crown;
#X obj 831 210 bng 16 250 50 0 empty empty empty 0 -8 0 10 #fcfcfc #000000 #000000;
#X obj 790 210 bng 16 250 50 0 empty empty empty 0 -8 0 10 #fcfcfc #000000 #000000;
#X obj 872 210 bng 16 250 50 0 empty empty empty 0 -8 0 10 #fcfcfc #000000 #000000;
#X obj 914 210 bng 16 250 50 0 empty empty empty 0 -8 0 10 #fcfcfc #000000 #000000;
#X obj 955 210 bng 16 250 50 0 empty empty empty 0 -8 0 10 #fcfcfc #000000 #000000;
#X msg 790 231 0.25;
#X msg 831 231 0.5;
#X msg 872 231 1;
#X msg 914 231 2;
#X msg 955 231 4;
#X obj 870 405 / 2;
#X obj 923 405 * 2;
#X obj 841 405 / 4;
#X obj 897 405 * 1;
#X obj 950 405 * 4;
#X obj 812 405 / 8;
#X obj 812 389 f;
#X obj 841 389 f;
#X obj 870 389 f;
#X obj 897 389 f;
#X floatatom 777 422 5 0 0 0 - - - 0;
#X obj 777 405 / 16;
#X obj 777 389 f;
#X obj 1403 373 sel 0 1 2 3 4;
#X obj 977 405 * 8;
#X obj 1004 405 * 16;
#X obj 923 389 f;
#X obj 950 389 f;
#X obj 977 389 f;
#X obj 1004 389 f;
#X floatatom 1403 353 5 0 0 0 - - - 0;
#X obj 1403 332 random 5;
#X obj 1314 373 sel 0 1 2 3 4;
#X floatatom 1314 353 5 0 0 0 - - - 0;
#X obj 1314 332 random 5;
#X obj 1224 373 sel 0 1 2 3 4;
#X floatatom 1224 353 5 0 0 0 - - - 0;
#X obj 1224 332 random 5;
#X obj 1132 373 sel 0 1 2 3 4;
#X floatatom 1132 353 5 0 0 0 - - - 0;
#X obj 1132 332 random 5;
#X obj 1043 373 sel 0 1 2 3 4;
#X floatatom 1043 353 5 0 0 0 - - - 0;
#X obj 1043 332 random 5;
#X obj 1189 316 int;
#X obj 790 189 sel 0.25 0.5 1 2 4, f 35;
#X floatatom 1189 332 5 0 0 0 - - - 0;
#X obj 1189 296 cyclone/scale 0 127 1 5;
#X obj 1074 231 r \$0-grainbang;
#X obj 1043 247 f;
#X obj 1043 316 sel 0.25 0.5 1 2 4;
#X obj 1189 273 r octave_amount;
#X obj 236 172 s reversetrigger;
#X connect 0 0 31 0;
#X connect 0 0 28 0;
#X connect 1 0 30 0;
#X connect 1 0 28 1;
#X connect 2 0 5 0;
#X connect 3 0 4 0;
#X connect 3 0 18 0;
#X connect 4 0 17 0;
#X connect 5 0 3 0;
#X connect 6 0 3 1;
#X connect 7 0 6 0;
#X connect 8 0 7 0;
#X connect 9 0 0 0;
#X connect 10 0 1 0;
#X connect 11 0 8 0;
#X connect 12 0 56 0;
#X connect 13 0 124 0;
#X connect 14 0 26 1;
#X connect 14 0 27 1;
#X connect 17 0 0 1;
#X connect 18 0 1 1;
#X connect 19 0 6 1;
#X connect 20 0 2 0;
#X connect 21 0 20 0;
#X connect 22 0 23 1;
#X connect 22 0 24 1;
#X connect 22 0 109 1;
#X connect 22 0 110 1;
#X connect 22 0 111 1;
#X connect 22 0 112 1;
#X connect 22 0 113 1;
#X connect 22 0 114 1;
#X connect 23 0 24 0;
#X connect 24 0 109 0;
#X connect 26 0 16 0;
#X connect 27 0 15 0;
#X connect 28 0 32 0;
#X connect 28 1 29 0;
#X connect 29 0 36 1;
#X connect 30 0 36 0;
#X connect 31 0 35 0;
#X connect 32 0 35 1;
#X connect 33 0 34 0;
#X connect 34 0 37 0;
#X connect 35 0 26 0;
#X connect 36 0 27 0;
#X connect 37 0 39 0;
#X connect 37 1 38 0;
#X connect 38 0 40 0;
#X connect 39 0 42 0;
#X connect 40 0 41 0;
#X connect 41 0 29 1;
#X connect 41 0 32 1;
#X connect 42 0 43 0;
#X connect 43 0 30 1;
#X connect 43 0 31 1;
#X connect 44 0 87 0;
#X connect 44 0 88 0;
#X connect 46 0 45 0;
#X connect 47 0 51 0;
#X connect 48 0 13 0;
#X connect 48 0 73 0;
#X connect 49 0 64 0;
#X connect 50 0 49 1;
#X connect 51 0 49 0;
#X connect 52 0 53 0;
#X connect 53 0 46 0;
#X connect 54 0 50 0;
#X connect 56 0 57 0;
#X connect 57 0 86 0;
#X connect 58 0 57 1;
#X connect 59 0 63 0;
#X connect 60 0 74 0;
#X connect 60 1 65 0;
#X connect 61 0 60 0;
#X connect 61 0 177 0;
#X connect 62 0 61 1;
#X connect 63 0 61 0;
#X connect 64 0 48 0;
#X connect 65 0 66 0;
#X connect 66 0 67 0;
#X connect 67 0 68 1;
#X connect 68 0 73 1;
#X connect 69 0 70 0;
#X connect 70 0 71 1;
#X connect 70 0 108 0;
#X connect 71 0 68 0;
#X connect 71 0 85 0;
#X connect 72 0 71 0;
#X connect 73 0 44 0;
#X connect 74 0 66 0;
#X connect 75 0 81 0;
#X connect 76 0 170 0;
#X connect 77 0 170 0;
#X connect 78 0 170 0;
#X connect 79 0 170 0;
#X connect 80 0 170 0;
#X connect 81 0 77 0;
#X connect 81 1 78 0;
#X connect 81 2 76 0;
#X connect 81 3 79 0;
#X connect 81 4 80 0;
#X connect 82 0 44 1;
#X connect 83 0 84 0;
#X connect 84 0 85 1;
#X connect 85 0 86 1;
#X connect 86 0 82 0;
#X connect 87 0 104 0;
#X connect 88 0 105 0;
#X connect 89 0 90 0;
#X connect 90 0 91 0;
#X connect 91 0 92 0;
#X connect 92 0 83 0;
#X connect 92 0 66 1;
#X connect 93 0 91 1;
#X connect 94 0 89 0;
#X connect 104 0 118 0;
#X connect 105 0 117 0;
#X connect 106 0 104 1;
#X connect 106 0 105 1;
#X connect 107 0 106 0;
#X connect 108 0 107 0;
#X connect 109 0 110 0;
#X connect 110 0 9 0;
#X connect 111 0 112 0;
#X connect 112 0 113 0;
#X connect 113 0 114 0;
#X connect 114 0 10 0;
#X connect 116 0 119 0;
#X connect 117 0 23 0;
#X connect 118 0 111 0;
#X connect 119 0 121 0;
#X connect 120 0 117 1;
#X connect 120 0 118 1;
#X connect 121 0 120 0;
#X connect 124 0 9 1;
#X connect 124 0 10 1;
#X connect 125 0 131 0;
#X connect 126 0 130 0;
#X connect 127 0 132 0;
#X connect 128 0 133 0;
#X connect 129 0 134 0;
#X connect 130 0 154 1;
#X connect 130 0 153 1;
#X connect 130 0 152 1;
#X connect 130 0 151 1;
#X connect 130 0 144 1;
#X connect 130 0 174 1;
#X connect 131 0 153 1;
#X connect 131 0 152 1;
#X connect 131 0 151 1;
#X connect 131 0 144 1;
#X connect 131 0 143 1;
#X connect 131 0 174 1;
#X connect 132 0 152 1;
#X connect 132 0 151 1;
#X connect 132 0 144 1;
#X connect 132 0 143 1;
#X connect 132 0 142 1;
#X connect 132 0 174 1;
#X connect 133 0 151 1;
#X connect 133 0 144 1;
#X connect 133 0 143 1;
#X connect 133 0 142 1;
#X connect 133 0 141 1;
#X connect 133 0 174 1;
#X connect 134 0 147 1;
#X connect 134 0 144 1;
#X connect 134 0 143 1;
#X connect 134 0 142 1;
#X connect 134 0 141 1;
#X connect 134 0 174 1;
#X connect 135 0 145 0;
#X connect 136 0 145 0;
#X connect 137 0 145 0;
#X connect 138 0 145 0;
#X connect 139 0 145 0;
#X connect 140 0 145 0;
#X connect 141 0 140 0;
#X connect 142 0 137 0;
#X connect 143 0 135 0;
#X connect 144 0 138 0;
#X connect 145 0 92 1;
#X connect 146 0 145 0;
#X connect 147 0 146 0;
#X connect 148 0 144 0;
#X connect 148 1 143 0;
#X connect 148 2 142 0;
#X connect 148 3 141 0;
#X connect 148 4 147 0;
#X connect 149 0 145 0;
#X connect 150 0 145 0;
#X connect 151 0 136 0;
#X connect 152 0 139 0;
#X connect 153 0 149 0;
#X connect 154 0 150 0;
#X connect 155 0 148 0;
#X connect 156 0 155 0;
#X connect 157 0 144 0;
#X connect 157 1 143 0;
#X connect 157 2 151 0;
#X connect 157 3 142 0;
#X connect 157 4 141 0;
#X connect 158 0 157 0;
#X connect 159 0 158 0;
#X connect 160 0 144 0;
#X connect 160 1 151 0;
#X connect 160 2 143 0;
#X connect 160 3 152 0;
#X connect 160 4 142 0;
#X connect 161 0 160 0;
#X connect 162 0 161 0;
#X connect 163 0 144 0;
#X connect 163 1 151 0;
#X connect 163 2 152 0;
#X connect 163 3 143 0;
#X connect 163 4 153 0;
#X connect 164 0 163 0;
#X connect 165 0 164 0;
#X connect 166 0 144 0;
#X connect 166 1 151 0;
#X connect 166 2 152 0;
#X connect 166 3 153 0;
#X connect 166 4 154 0;
#X connect 167 0 166 0;
#X connect 168 0 167 0;
#X connect 169 0 168 1;
#X connect 169 0 165 1;
#X connect 169 0 162 1;
#X connect 169 0 159 1;
#X connect 169 0 156 1;
#X connect 169 0 171 0;
#X connect 170 0 126 0;
#X connect 170 1 125 0;
#X connect 170 2 127 0;
#X connect 170 3 128 0;
#X connect 170 4 129 0;
#X connect 172 0 169 0;
#X connect 173 0 174 0;
#X connect 174 0 175 0;
#X connect 175 0 168 0;
#X connect 175 1 165 0;
#X connect 175 2 162 0;
#X connect 175 3 159 0;
#X connect 175 4 156 0;
#X connect 176 0 172 0;
